<?xml version="1.0" standalone="no"?>
<!DOCTYPE svg PUBLIC "-//W3C//DTD SVG 20010904//EN"
 "http://www.w3.org/TR/2001/REC-SVG-20010904/DTD/svg10.dtd">
<svg version="1.0" xmlns="http://www.w3.org/2000/svg"
 width="900.000000pt" height="260.000000pt" viewBox="0 0 900.000000 260.000000"
 preserveAspectRatio="xMidYMid meet">
<metadata>
Created by potrace 1.15, written by Peter Selinger 2001-2017
</metadata>
<g transform="translate(0.000000,260.000000) scale(0.100000,-0.100000)"
fill="#000000" stroke="none">
<path d="M517 1742 c-196 -422 -357 -771 -357 -775 0 -5 19 -7 42 -5 l41 3
100 218 100 217 437 0 437 0 103 -220 103 -220 39 0 c21 0 38 5 38 10 0 6 -97
219 -216 473 -118 254 -279 598 -357 765 -77 166 -143 302 -146 302 -4 0 -167
-346 -364 -768z m562 176 c107 -232 196 -430 199 -440 4 -17 -16 -18 -397 -18
-220 0 -401 3 -401 8 0 4 64 147 143 317 79 171 168 365 198 432 30 68 56 123
59 123 3 0 93 -190 199 -422z"/>
<path d="M5360 2504 c-256 -50 -454 -185 -575 -392 -229 -390 -82 -890 325
-1101 198 -103 421 -117 633 -41 105 39 187 90 276 174 175 166 262 380 248
611 -14 217 -90 380 -250 531 -93 89 -184 144 -307 185 -79 26 -112 32 -210
34 -63 2 -126 1 -140 -1z m284 -94 c187 -48 367 -189 453 -356 116 -224 116
-454 0 -678 -63 -122 -182 -239 -307 -299 -117 -57 -198 -77 -316 -77 -316 0
-595 210 -689 520 -23 76 -30 230 -16 315 51 289 280 526 566 585 77 16 228
11 309 -10z"/>
<path d="M7420 1737 l0 -778 38 3 37 3 -2 673 c-1 369 0 672 2 672 2 0 171
-181 376 -402 205 -222 495 -534 643 -695 149 -160 273 -290 276 -288 3 2 5
351 5 777 l0 773 -40 0 -40 0 3 -677 c1 -373 0 -678 -2 -678 -4 0 -302 321
-930 1000 -180 195 -337 364 -347 375 -19 19 -19 5 -19 -758z"/>
<path d="M2370 2476 c0 -14 719 -1547 726 -1548 5 0 54 98 110 218 55 121 216
467 357 770 142 304 257 555 257 559 0 3 -19 5 -42 3 l-43 -3 -202 -435 c-111
-239 -255 -551 -319 -693 -64 -141 -118 -256 -119 -255 -2 2 -52 113 -113 248
-61 135 -133 295 -162 355 -28 61 -119 256 -202 435 -83 179 -155 331 -161
338 -8 11 -87 18 -87 8z"/>
<path d="M1140 655 c0 -33 -4 -45 -15 -45 -8 0 -15 -9 -15 -20 0 -11 7 -20 15
-20 12 0 15 -19 15 -110 l0 -110 25 0 25 0 0 110 c0 103 1 110 20 110 13 0 20
7 20 20 0 13 -7 20 -20 20 -17 0 -20 7 -20 45 0 41 -2 45 -25 45 -23 0 -25 -4
-25 -45z"/>
<path d="M1330 525 l0 -175 25 0 c25 0 25 0 25 94 0 90 1 96 26 115 33 26 55
26 83 4 18 -16 21 -31 23 -113 3 -90 4 -95 26 -98 21 -3 22 -1 22 92 0 52 -5
107 -12 121 -23 50 -101 71 -146 39 -22 -15 -22 -15 -22 40 0 53 -1 56 -25 56
l-25 0 0 -175z"/>
<path d="M5000 680 c-11 -11 -20 -29 -20 -39 0 -10 -7 -21 -15 -25 -8 -3 -15
-12 -15 -21 0 -9 7 -18 15 -21 12 -5 15 -27 15 -115 l0 -109 25 0 25 0 0 110
c0 103 1 110 20 110 13 0 20 7 20 19 0 11 -9 23 -20 26 -11 3 -20 11 -20 16 0
5 9 14 20 21 11 7 20 21 20 30 0 25 -45 23 -70 -2z"/>
<path d="M1702 600 c-61 -38 -80 -130 -39 -191 28 -42 60 -59 112 -59 48 0
113 41 115 73 0 15 -42 6 -62 -13 -31 -28 -83 -26 -113 5 -14 13 -25 29 -25
35 0 6 38 10 104 10 58 0 108 4 111 10 11 18 -15 86 -44 114 -41 39 -112 46
-159 16z"/>
<path d="M2218 605 c-32 -18 -68 -82 -68 -120 0 -66 50 -127 115 -139 47 -9
114 21 138 63 l18 31 -26 0 c-15 0 -40 -11 -57 -25 -36 -30 -67 -32 -101 -5
-33 26 -42 69 -23 114 22 53 88 65 132 25 23 -22 64 -25 64 -6 0 7 -13 26 -30
42 -36 35 -118 45 -162 20z"/>
<path d="M2600 613 c-23 -9 -60 -45 -76 -75 -33 -64 1 -148 72 -180 74 -32
149 -4 185 70 34 68 8 141 -61 177 -28 15 -90 19 -120 8z m119 -67 c47 -50 22
-135 -44 -152 -58 -14 -124 52 -109 110 17 68 105 93 153 42z"/>
<path d="M2900 486 l0 -136 25 0 c25 0 25 0 25 93 0 107 9 128 59 129 51 2 61
-20 61 -129 0 -92 0 -93 24 -93 23 0 24 2 28 95 3 104 15 128 63 128 48 0 60
-24 63 -128 4 -93 5 -95 28 -95 24 0 24 2 24 89 0 101 -12 143 -45 165 -31 20
-87 20 -125 1 -27 -14 -32 -14 -55 1 -18 12 -37 14 -67 10 -61 -8 -61 -8 -85
-1 l-23 7 0 -136z"/>
<path d="M3417 613 c-4 -3 -7 -82 -7 -175 l0 -168 25 0 c24 0 25 3 25 55 0 55
0 55 23 41 83 -54 190 -1 204 101 7 50 -25 116 -67 138 -36 18 -97 19 -129 1
-21 -12 -27 -12 -39 0 -15 15 -25 17 -35 7z m191 -66 c51 -54 27 -140 -43
-153 -86 -16 -136 88 -75 154 29 31 89 30 118 -1z"/>
<path d="M3828 604 c-32 -17 -68 -81 -68 -119 0 -101 103 -170 191 -127 30 15
39 16 39 6 0 -8 10 -14 25 -14 l25 0 0 129 c0 113 -2 130 -17 135 -10 4 -22 1
-28 -7 -9 -13 -14 -13 -35 -1 -33 18 -98 17 -132 -2z m147 -67 c25 -36 19 -85
-14 -118 -16 -16 -39 -29 -51 -29 -58 0 -108 59 -95 113 8 30 42 63 70 69 29
6 73 -11 90 -35z"/>
<path d="M4160 485 l0 -135 24 0 c23 0 24 2 28 95 2 72 7 98 20 111 20 20 73
23 91 5 7 -7 14 -53 17 -109 5 -89 7 -97 26 -100 18 -3 22 4 28 44 14 109 0
176 -45 208 -27 18 -99 22 -116 5 -8 -8 -17 -8 -31 0 -40 21 -42 16 -42 -124z"/>
<path d="M4470 612 c0 -5 22 -64 50 -131 48 -120 49 -124 35 -158 -20 -47 -19
-53 8 -53 21 0 32 18 94 168 66 158 69 167 50 175 -11 4 -24 4 -28 0 -4 -4
-24 -50 -44 -100 -21 -51 -38 -93 -40 -93 -1 0 -17 39 -35 88 -18 48 -37 93
-43 100 -11 13 -47 17 -47 4z"/>
<path d="M5216 601 c-119 -78 -68 -253 75 -255 51 -1 86 18 122 66 24 32 25
109 2 144 -40 61 -140 84 -199 45z m139 -56 c36 -35 34 -88 -4 -126 -32 -31
-55 -36 -96 -17 -29 13 -55 55 -55 87 0 11 12 33 26 50 34 41 92 44 129 6z"/>
<path d="M5540 485 l0 -135 25 0 c25 0 25 1 25 90 0 77 3 93 20 110 11 11 25
20 30 20 6 0 10 11 10 25 0 18 -5 25 -19 25 -11 0 -23 -5 -26 -10 -4 -7 -12
-7 -25 0 -38 20 -40 14 -40 -125z"/>
<path d="M5888 615 c-10 -11 89 -260 104 -263 11 -2 23 20 42 83 15 47 28 85
31 85 2 0 16 -39 30 -86 20 -64 30 -84 42 -82 10 2 32 48 61 126 38 103 43
125 31 133 -25 15 -33 4 -63 -81 l-30 -84 -29 88 c-36 109 -50 110 -84 2 -13
-43 -28 -74 -33 -70 -4 5 -17 39 -29 76 -20 59 -34 78 -60 78 -4 0 -10 -2 -13
-5z"/>
<path d="M6383 600 c-81 -49 -84 -173 -6 -228 92 -64 210 -12 221 96 8 89 -48
152 -138 152 -27 0 -58 -8 -77 -20z m147 -55 c34 -36 30 -92 -9 -127 -17 -15
-40 -28 -52 -28 -37 0 -77 28 -88 63 -31 94 82 163 149 92z"/>
<path d="M6717 614 c-4 -4 -7 -65 -7 -136 l0 -128 25 0 c25 0 25 1 25 93 0 99
3 108 38 126 18 9 28 9 50 -1 26 -13 27 -15 30 -116 3 -100 3 -102 26 -102 23
0 24 3 28 95 4 105 16 128 63 128 48 0 60 -24 63 -128 4 -93 5 -95 28 -95 24
0 24 1 24 95 0 139 -23 175 -113 175 -31 0 -49 -6 -62 -19 -17 -20 -17 -20
-45 1 -22 16 -37 19 -72 14 -23 -3 -47 -6 -53 -7 -5 -1 -17 2 -26 5 -8 4 -18
3 -22 0z"/>
<path d="M7285 610 c-44 -18 -69 -58 -73 -118 -4 -52 -1 -61 24 -91 59 -71
139 -76 202 -13 l36 36 -25 6 c-17 5 -32 0 -52 -17 -16 -13 -37 -23 -48 -23
-19 0 -79 26 -79 34 0 3 -3 11 -6 20 -5 14 7 16 100 16 123 0 129 4 102 75
-27 70 -110 105 -181 75z"/>
<path d="M7587 613 c-4 -3 -7 -64 -7 -135 l0 -128 25 0 c25 0 25 1 25 80 0
119 32 164 96 140 33 -13 44 -47 44 -141 0 -78 0 -79 26 -79 l26 0 -4 106 c-3
105 -3 106 -36 135 -35 31 -85 39 -124 18 -14 -8 -23 -8 -31 0 -12 12 -30 14
-40 4z"/>
</g>
</svg>
